<svg width="42" height="49" viewBox="0 0 42 49" fill="none" xmlns="http://www.w3.org/2000/svg">
<path d="M0.0971494 0H3.08481L10.1099 17H10.3521L17.3771 0H20.3648V20.48H18.0231V4.92H17.8212L11.3614 20.48H9.10051L2.6407 4.92H2.43883V20.48H0.0971494V0Z" fill="#464646"/>
<path d="M29.363 20.48V0H41.8385V2.2H31.8662V9.12H41.1925V11.32H31.8662V18.28H42V20.48H29.363Z" fill="#464646"/>
<path d="M16.3918 28.16V48.64H13.9693L2.70504 32.56H2.50318V48.64H0V28.16H2.42243L13.7271 44.28H13.929V28.16H16.3918Z" fill="#464646"/>
<path d="M38.9455 28.16H41.4486V41.72C41.4486 43.12 41.1156 44.37 40.4494 45.47C39.79 46.5633 38.858 47.4267 37.6535 48.06C36.449 48.6867 35.0359 49 33.4143 49C31.7926 49 30.3795 48.6867 29.175 48.06C27.9705 47.4267 27.0352 46.5633 26.369 45.47C25.7096 44.37 25.3799 43.12 25.3799 41.72V28.16H27.8831V41.52C27.8831 42.52 28.1051 43.41 28.5492 44.19C28.9933 44.9633 29.6259 45.5733 30.4468 46.02C31.2745 46.46 32.2636 46.68 33.4143 46.68C34.5649 46.68 35.5541 46.46 36.3817 46.02C37.2094 45.5733 37.8419 44.9633 38.2793 44.19C38.7234 43.41 38.9455 42.52 38.9455 41.52V28.16Z" fill="#464646"/>
</svg>
