<svg width="143" height="60" viewBox="0 0 143 60" fill="none" xmlns="http://www.w3.org/2000/svg">
<path d="M55.8024 0H3.73292C1.62717 0 0 1.7229 0 3.73293V55.8024C0 57.9082 1.72288 59.5353 3.73292 59.5353H55.8024C57.9082 59.5353 59.5353 57.8124 59.5353 55.8024V3.73293C59.5353 1.62718 57.9082 0 55.8024 0ZM18.7603 45.6565L24.8861 35.032L12.6345 13.7831H40.775L34.6492 24.4076L46.9008 45.6565H18.7603Z" fill="#00CC61"/>
<path d="M18.2852 17.1338L26.7082 31.6826L35.1312 17.1338H18.2852Z" fill="#00CC61"/>
<path d="M40.7733 13.8789H12.6328L24.8845 35.1279L18.7586 45.7523H46.8991L34.6475 24.5034L40.7733 13.8789ZM18.2801 17.1333H35.1261L26.7031 31.7778L18.2801 17.1333Z" fill="white"/>
<path d="M69.5801 30.6281H77.716C77.6203 31.4895 77.6203 32.2553 77.6203 32.9253C77.6203 34.8396 78.2903 36.2753 79.5346 37.1368C80.7789 37.9982 83.2675 38.3811 86.9047 38.3811C90.1591 38.3811 92.3605 37.9025 93.6048 36.9454C94.8491 35.9882 95.4234 34.4567 95.4234 32.4467C95.4234 30.9152 95.1363 29.7667 94.6577 29.0009C94.1791 28.2352 93.222 27.5652 91.8819 26.9909C90.2548 26.4166 87.9576 25.8423 84.9904 25.268C82.8846 24.9809 81.3532 24.6937 80.2046 24.5023C79.056 24.3108 77.716 23.8323 76.1845 23.258C74.6531 22.6837 73.4088 21.9179 72.643 21.1522C71.8773 20.3865 71.2073 19.2379 70.5373 17.7064C69.963 16.2707 69.6758 14.5478 69.6758 12.5378C69.6758 7.75198 71.0159 4.49764 73.6002 2.77475C76.2802 1.14758 80.7789 0.286133 87.2876 0.286133C93.0305 0.286133 97.1463 1.05186 99.4435 2.4876C101.741 3.92334 102.985 6.79483 102.985 11.1978C102.985 12.3464 102.889 13.2078 102.794 13.8778H94.9449C94.9449 13.4949 95.0406 12.9206 95.0406 12.0592C95.0406 10.3363 94.4663 9.09201 93.3177 8.32628C92.1691 7.56056 90.0633 7.17768 86.9047 7.17768C83.5547 7.17768 81.2575 7.56055 80.0132 8.42199C78.7688 9.28343 78.0988 10.6235 78.0988 12.6335C78.0988 14.3564 78.4817 15.6007 79.1517 16.4621C79.8217 17.3236 81.066 17.8979 82.7889 18.2807C83.3632 18.3765 85.5647 18.6636 89.489 19.1422C93.4134 19.6208 96.2849 20.1951 98.1035 20.9608C100.209 21.9179 101.645 23.258 102.506 25.0766C103.368 26.8952 103.751 29.0966 103.751 31.8724C103.751 36.9454 102.506 40.4868 100.018 42.4012C97.5292 44.3155 93.1262 45.2726 86.7133 45.2726C80.3003 45.2726 75.8017 44.4112 73.2173 42.784C70.5373 41.1569 69.293 38.1897 69.293 33.7867C69.4844 32.7338 69.4844 31.681 69.5801 30.6281Z" fill="white"/>
<path d="M111.215 0.860352H142.514V7.65618L120.021 37.4238H142.993V44.6025H109.875V37.4238L132.464 8.03905H111.215V0.860352Z" fill="white"/>
<path d="M79.7326 56.0875H83.4655V54.9389H79.7326V53.216H83.5613V51.876H78.2969V59.4375H83.5613V58.1932H79.7326V56.0875Z" fill="white"/>
<path d="M88.4419 57.7146L86.5275 51.876H84.9961L87.6761 59.4375H89.2076L91.9833 51.876H90.4519L88.4419 57.7146Z" fill="white"/>
<path d="M94.8517 56.0875H98.5847V54.9389H94.8517V53.216H98.6804V51.876H93.5117V59.4375H98.7761V58.1932H94.8517V56.0875Z" fill="white"/>
<path d="M102.035 51.876H100.504V59.4375H105.385V58.1932H102.035V51.876Z" fill="white"/>
<path d="M112.942 53.4084C112.847 53.1213 112.751 52.8341 112.655 52.6427C112.559 52.4513 112.368 52.3555 112.081 52.1641C111.794 52.0684 111.506 51.9727 111.219 51.877C110.836 51.7813 110.454 51.7812 109.975 51.7812C109.496 51.7812 109.018 51.7813 108.731 51.877C108.348 51.877 108.061 51.9727 107.869 52.1641C107.582 52.2598 107.391 52.4513 107.295 52.6427C107.199 52.8341 107.008 53.0256 107.008 53.4084C106.912 53.6956 106.912 54.0784 106.816 54.3656C106.816 54.6527 106.816 55.1313 106.816 55.7056C106.816 56.2799 106.816 56.6628 106.816 57.0456C106.816 57.3328 106.912 57.7156 107.008 58.0028C107.104 58.2899 107.199 58.5771 107.295 58.7685C107.391 58.9599 107.582 59.0557 107.869 59.2471C108.156 59.3428 108.444 59.4385 108.731 59.5342C109.114 59.5342 109.496 59.63 109.975 59.63C110.358 59.63 110.645 59.63 110.932 59.63C111.219 59.63 111.506 59.5342 111.698 59.5342C111.889 59.4385 112.081 59.3428 112.272 59.2471C112.464 59.1514 112.559 59.0557 112.655 58.8642C112.751 58.6728 112.847 58.5771 112.942 58.3856C113.038 58.1942 113.038 58.0028 113.134 57.7156C113.134 57.4285 113.229 57.1413 113.229 56.8542C113.229 56.5671 113.229 56.2799 113.229 55.8013C113.229 55.227 113.229 54.8442 113.229 54.4613C113.038 53.9827 113.038 53.6956 112.942 53.4084ZM111.698 56.4882C111.698 56.7754 111.602 56.8542 111.602 57.0456C111.602 57.2371 111.506 57.4285 111.506 57.6199C111.506 57.8114 111.315 57.9071 111.219 58.0028C111.124 58.0985 110.932 58.1942 110.741 58.1942C110.549 58.2899 110.262 58.2899 109.975 58.2899C109.592 58.2899 109.209 58.2899 109.018 58.1942C108.826 58.0985 108.635 58.0028 108.444 57.8114C108.348 57.6199 108.252 57.4285 108.252 57.2371C108.252 57.0456 108.156 56.6628 108.156 56.2799V54.9399C108.156 54.557 108.156 54.2699 108.252 54.0784C108.252 53.887 108.348 53.6956 108.444 53.5041C108.539 53.3127 108.731 53.217 109.018 53.1213C109.209 53.0256 109.592 53.0256 109.975 53.0256C110.358 53.0256 110.645 53.0256 110.932 53.1213C111.124 53.217 111.315 53.3127 111.506 53.5041C111.602 53.6956 111.698 53.887 111.698 54.0784C111.698 54.2699 111.794 54.557 111.794 54.9399V56.2799L111.698 56.4882Z" fill="white"/>
<path d="M123.854 56.0875H127.587V54.9389H123.854V53.216H127.682V51.876H122.418V59.4375H127.682V58.1932H123.854V56.0875Z" fill="white"/>
<path d="M142.809 56.0885C142.714 55.8013 142.426 55.5142 142.044 55.4185C141.756 55.3227 141.182 55.227 140.512 55.1313C139.842 55.0356 139.459 55.0356 139.364 54.9399C139.076 54.8442 138.885 54.7484 138.789 54.6527C138.694 54.4613 138.598 54.2699 138.598 53.9827C138.598 53.5999 138.694 53.4084 138.885 53.217C139.076 53.1213 139.459 53.0256 140.034 53.0256C140.608 53.0256 140.895 53.1213 141.182 53.217C141.374 53.3127 141.469 53.5999 141.469 53.887C141.469 54.0784 141.469 54.1741 141.469 54.1741H142.809C142.809 54.0784 142.809 53.887 142.809 53.6956C142.809 52.9298 142.618 52.4513 142.235 52.1641C141.852 51.877 141.086 51.7812 140.129 51.7812C138.981 51.7812 138.215 51.9727 137.736 52.2598C137.258 52.547 137.066 53.1213 137.066 53.887C137.066 54.2699 137.162 54.557 137.258 54.7485C137.354 55.0356 137.449 55.227 137.641 55.3227C137.736 55.4185 138.024 55.6099 138.215 55.7056C138.502 55.8013 138.694 55.897 138.885 55.897C139.076 55.897 139.364 55.9927 139.746 55.9927C140.225 56.0885 140.608 56.1842 140.895 56.2799C141.086 56.3756 141.278 56.4713 141.374 56.6628C141.469 56.7585 141.469 56.9499 141.469 57.2371C141.469 57.6199 141.374 57.8114 141.182 58.0028C140.991 58.1942 140.608 58.2899 140.034 58.2899C139.364 58.2899 138.981 58.1942 138.789 58.0985C138.598 58.0028 138.502 57.7156 138.502 57.3328C138.502 57.2371 138.502 57.0456 138.502 56.9499H137.066C137.066 57.1413 137.066 57.3328 137.066 57.5242C137.066 58.2899 137.258 58.7685 137.736 59.0557C138.215 59.3428 138.981 59.4385 140.034 59.4385C141.086 59.4385 141.852 59.2471 142.331 58.9599C142.714 58.6728 143.001 58.0028 143.001 57.1413C143.001 56.7585 142.905 56.3756 142.809 56.0885Z" fill="white"/>
<path d="M73.9889 51.876H72.266H70.1602H69.5859V53.1203H70.2559V59.4375H74.0846C75.0417 59.4375 75.7118 59.1504 75.9989 58.6718C76.3818 58.1932 76.4775 57.3318 76.4775 56.0875V55.1303C76.4775 53.886 76.2861 53.0246 75.9989 52.546C75.616 52.1631 74.946 51.876 73.9889 51.876ZM75.0417 56.4703C75.0417 57.1403 74.946 57.6189 74.8503 57.8104C74.6589 58.0975 74.3717 58.1932 73.9889 58.1932H71.7874V53.1203H72.3617H73.9889C74.3717 53.1203 74.6589 53.216 74.8503 53.5031C75.0417 53.7903 75.0417 54.2689 75.0417 54.8432V56.4703Z" fill="white"/>
<path d="M120.7 53.217C120.7 52.9298 120.604 52.7384 120.413 52.4512C120.317 52.2598 120.03 52.0684 119.839 52.0684C119.551 51.9727 119.264 51.9727 118.786 51.9727H117.063H114.957H114.383V53.217H114.957V59.5342H116.393V57.0456H118.69C119.169 57.0456 119.551 57.0456 119.839 56.9499C120.126 56.8542 120.317 56.7585 120.509 56.567C120.7 56.3756 120.796 56.0884 120.796 55.897C120.796 55.6099 120.891 55.3227 120.891 54.8441V54.4613C120.796 53.7913 120.796 53.4084 120.7 53.217ZM119.36 54.8441C119.36 55.227 119.264 55.4184 119.169 55.6099C119.073 55.8013 118.881 55.8013 118.499 55.8013H116.297V53.1212H118.499C118.786 53.1212 119.073 53.217 119.169 53.4084C119.264 53.5998 119.264 53.887 119.264 54.2698V54.8441H119.36Z" fill="white"/>
<path d="M135.434 58.0975V57.2361C135.434 56.7575 135.339 56.3746 135.147 56.2789C134.956 56.0875 134.669 55.9918 134.286 55.896C134.669 55.8003 135.052 55.7046 135.243 55.4175C135.434 55.1303 135.53 54.7474 135.53 54.1732V53.9817C135.53 53.216 135.339 52.6417 134.956 52.3546C134.573 52.0674 133.999 51.876 133.233 51.876H131.797H129.596H129.117V53.1203H129.596V59.4375H131.032V56.4703H133.233C133.616 56.4703 133.807 56.5661 133.999 56.6618C134.094 56.7575 134.19 57.0446 134.19 57.3318V58.1932C134.19 58.7675 134.19 59.1504 134.286 59.4375H135.722C135.434 59.0547 135.434 58.5761 135.434 58.0975ZM133.999 54.3646C133.999 54.7474 133.903 54.9389 133.807 55.1303C133.712 55.3217 133.424 55.3217 133.042 55.3217H130.84V53.0246H131.606H132.946C133.233 53.0246 133.52 53.1203 133.616 53.216C133.712 53.4074 133.807 53.5989 133.807 53.9817H133.999V54.3646Z" fill="white"/>
</svg>
