<svg width="92" height="38" viewBox="0 0 92 38" fill="none" xmlns="http://www.w3.org/2000/svg">
<path d="M35.562 0H2.37893C1.03697 0 0 1.09797 0 2.37894V35.562C0 36.904 1.09797 37.9409 2.37893 37.9409H35.562C36.904 37.9409 37.9409 36.843 37.9409 35.562V2.37894C37.9409 1.03698 36.904 0 35.562 0ZM11.9557 29.0962L15.8596 22.3254L8.05177 8.78376H25.9853L22.0814 15.5546L29.8892 29.0962H11.9557Z" fill="#00CC61"/>
<path d="M11.6523 10.9189L17.0202 20.1907L22.388 10.9189H11.6523Z" fill="#00CC61"/>
<path d="M25.9843 8.84375H8.05078L15.8586 22.3854L11.9547 29.1562H29.8882L22.0804 15.6146L25.9843 8.84375ZM11.6497 10.9177H22.3854L17.0175 20.2504L11.6497 10.9177Z" fill="white"/>
<path d="M44.3432 19.522H49.528C49.467 20.071 49.467 20.559 49.467 20.986C49.467 22.2059 49.894 23.1209 50.687 23.6699C51.4799 24.2189 53.0659 24.4629 55.3838 24.4629C57.4578 24.4629 58.8607 24.1579 59.6537 23.5479C60.4467 22.9379 60.8127 21.9619 60.8127 20.681C60.8127 19.705 60.6297 18.973 60.3247 18.485C60.0197 17.997 59.4097 17.5701 58.5558 17.2041C57.5188 16.8381 56.0548 16.4721 54.1639 16.1061C52.8219 15.9231 51.8459 15.7401 51.114 15.6181C50.382 15.4961 49.528 15.1911 48.552 14.8251C47.5761 14.4591 46.7831 13.9712 46.2951 13.4832C45.8071 12.9952 45.3801 12.2632 44.9531 11.2872C44.5871 10.3723 44.4042 9.27429 44.4042 7.99333C44.4042 4.94341 45.2581 2.86947 46.9051 1.77151C48.613 0.734535 51.48 0.185547 55.6278 0.185547C59.2877 0.185547 61.9107 0.673535 63.3746 1.58851C64.8386 2.50348 65.6315 4.33344 65.6315 7.13936C65.6315 7.87134 65.5706 8.42031 65.5096 8.8473H60.5077C60.5077 8.60331 60.5687 8.23732 60.5687 7.68834C60.5687 6.59037 60.2027 5.79739 59.4707 5.30941C58.7387 4.82142 57.3968 4.57742 55.3838 4.57742C53.2489 4.57742 51.7849 4.82142 50.992 5.3704C50.199 5.91938 49.772 6.77337 49.772 8.05433C49.772 9.1523 50.016 9.94528 50.443 10.4943C50.87 11.0432 51.6629 11.4092 52.7609 11.6532C53.1269 11.7142 54.5299 11.8972 57.0308 12.2022C59.5317 12.5072 61.3617 12.8732 62.5206 13.3612C63.8626 13.9712 64.7776 14.8251 65.3266 15.9841C65.8755 17.1431 66.1195 18.546 66.1195 20.315C66.1195 23.5479 65.3266 25.8048 63.7406 27.0248C62.1546 28.2448 59.3487 28.8547 55.2618 28.8547C51.175 28.8547 48.308 28.3058 46.6611 27.2688C44.9531 26.2318 44.1602 24.3409 44.1602 21.5349C44.2822 20.864 44.2822 20.193 44.3432 19.522Z" fill="#4B4B4B"/>
<path d="M70.8774 0.549805H90.8238V4.88068L76.4892 23.8511H91.1288V28.426H70.0234V23.8511L84.419 5.12467H70.8774V0.549805Z" fill="#4B4B4B"/>
<path d="M50.8134 35.7445H53.1923V35.0125H50.8134V33.9145H53.2533V33.0605H49.8984V37.8794H53.2533V37.0864H50.8134V35.7445Z" fill="#4B4B4B"/>
<path d="M56.3639 36.7814L55.1439 33.0605H54.168L55.8759 37.8794H56.8519L58.6208 33.0605H57.6449L56.3639 36.7814Z" fill="#4B4B4B"/>
<path d="M60.4516 35.7445H62.8306V35.0125H60.4516V33.9145H62.8916V33.0605H59.5977V37.8794H62.9526V37.0864H60.4516V35.7445Z" fill="#4B4B4B"/>
<path d="M65.0267 33.0605H64.0508V37.8794H67.1617V37.0864H65.0267V33.0605Z" fill="#4B4B4B"/>
<path d="M71.9781 34.035C71.9171 33.852 71.8561 33.669 71.7951 33.547C71.7341 33.425 71.6121 33.364 71.4291 33.242C71.2461 33.181 71.0631 33.12 70.8801 33.059C70.6361 32.9981 70.3922 32.998 70.0872 32.998C69.7822 32.998 69.4772 32.9981 69.2942 33.059C69.0502 33.059 68.8672 33.12 68.7452 33.242C68.5622 33.303 68.4402 33.425 68.3792 33.547C68.3182 33.669 68.1962 33.791 68.1962 34.035C68.1352 34.218 68.1352 34.462 68.0742 34.645C68.0742 34.828 68.0742 35.133 68.0742 35.499C68.0742 35.865 68.0742 36.109 68.0742 36.353C68.0742 36.5359 68.1352 36.7799 68.1962 36.9629C68.2572 37.1459 68.3182 37.3289 68.3792 37.4509C68.4402 37.5729 68.5622 37.6339 68.7452 37.7559C68.9282 37.8169 69.1112 37.8779 69.2942 37.9389C69.5382 37.9389 69.7822 37.9999 70.0872 37.9999C70.3312 37.9999 70.5142 37.9999 70.6971 37.9999C70.8801 37.9999 71.0631 37.9389 71.1851 37.9389C71.3071 37.8779 71.4291 37.8169 71.5511 37.7559C71.6731 37.6949 71.7341 37.6339 71.7951 37.5119C71.8561 37.3899 71.9171 37.3289 71.9781 37.2069C72.0391 37.0849 72.0391 36.9629 72.1001 36.7799C72.1001 36.5969 72.1611 36.414 72.1611 36.231C72.1611 36.048 72.1611 35.865 72.1611 35.56C72.1611 35.194 72.1611 34.95 72.1611 34.706C72.0391 34.401 72.0391 34.218 71.9781 34.035ZM71.1851 35.9977C71.1851 36.1807 71.1241 36.231 71.1241 36.353C71.1241 36.4749 71.0631 36.5969 71.0631 36.7189C71.0631 36.8409 70.9411 36.9019 70.8801 36.9629C70.8191 37.0239 70.6971 37.0849 70.5752 37.0849C70.4532 37.1459 70.2702 37.1459 70.0872 37.1459C69.8432 37.1459 69.5992 37.1459 69.4772 37.0849C69.3552 37.0239 69.2332 36.9629 69.1112 36.8409C69.0502 36.7189 68.9892 36.5969 68.9892 36.4749C68.9892 36.3529 68.9282 36.109 68.9282 35.865V35.011C68.9282 34.767 68.9282 34.584 68.9892 34.462C68.9892 34.34 69.0502 34.218 69.1112 34.096C69.1722 33.974 69.2942 33.913 69.4772 33.852C69.5992 33.791 69.8432 33.791 70.0872 33.791C70.3312 33.791 70.5142 33.791 70.6971 33.852C70.8191 33.913 70.9411 33.974 71.0631 34.096C71.1241 34.218 71.1851 34.34 71.1851 34.462C71.1851 34.584 71.2461 34.767 71.2461 35.011V35.865L71.1851 35.9977Z" fill="#4B4B4B"/>
<path d="M78.9345 35.7445H81.3134V35.0125H78.9345V33.9145H81.3744V33.0605H78.0195V37.8794H81.3744V37.0864H78.9345V35.7445Z" fill="#4B4B4B"/>
<path d="M91.0115 35.743C90.9505 35.56 90.7675 35.377 90.5235 35.316C90.3405 35.255 89.9745 35.194 89.5475 35.133C89.1205 35.072 88.8765 35.072 88.8155 35.011C88.6325 34.95 88.5105 34.889 88.4495 34.828C88.3885 34.706 88.3275 34.584 88.3275 34.401C88.3275 34.157 88.3885 34.035 88.5105 33.913C88.6325 33.852 88.8765 33.791 89.2425 33.791C89.6085 33.791 89.7915 33.852 89.9745 33.913C90.0965 33.974 90.1575 34.157 90.1575 34.34C90.1575 34.462 90.1575 34.523 90.1575 34.523H91.0115C91.0115 34.462 91.0115 34.34 91.0115 34.218C91.0115 33.73 90.8895 33.425 90.6455 33.242C90.4015 33.059 89.9135 32.998 89.3035 32.998C88.5715 32.998 88.0835 33.12 87.7785 33.303C87.4736 33.486 87.3516 33.852 87.3516 34.34C87.3516 34.584 87.4126 34.767 87.4736 34.889C87.5346 35.072 87.5956 35.194 87.7176 35.255C87.7786 35.316 87.9615 35.438 88.0835 35.499C88.2665 35.56 88.3885 35.621 88.5105 35.621C88.6325 35.621 88.8155 35.682 89.0595 35.682C89.3645 35.743 89.6085 35.804 89.7915 35.865C89.9135 35.926 90.0355 35.987 90.0965 36.109C90.1575 36.17 90.1575 36.292 90.1575 36.4749C90.1575 36.7189 90.0965 36.8409 89.9745 36.9629C89.8525 37.0849 89.6085 37.1459 89.2425 37.1459C88.8155 37.1459 88.5715 37.0849 88.4495 37.0239C88.3275 36.9629 88.2665 36.7799 88.2665 36.5359C88.2665 36.4749 88.2665 36.3529 88.2665 36.2919H87.3516C87.3516 36.4139 87.3516 36.5359 87.3516 36.6579C87.3516 37.1459 87.4736 37.4509 87.7785 37.6339C88.0835 37.8169 88.5715 37.8779 89.2425 37.8779C89.9135 37.8779 90.4015 37.7559 90.7065 37.5729C90.9505 37.3899 91.1335 36.9629 91.1335 36.414C91.1335 36.17 91.0725 35.926 91.0115 35.743Z" fill="#4B4B4B"/>
<path d="M47.1536 33.0605H46.0556H44.7136H44.3477V33.8535H44.7746V37.8794H47.2146C47.8246 37.8794 48.2515 37.6964 48.4345 37.3914C48.6785 37.0864 48.7395 36.5374 48.7395 35.7445V35.1345C48.7395 34.3415 48.6175 33.7925 48.4345 33.4875C48.1905 33.2435 47.7636 33.0605 47.1536 33.0605ZM47.8246 35.9885C47.8246 36.4154 47.7636 36.7204 47.7026 36.8424C47.5806 37.0254 47.3976 37.0864 47.1536 37.0864H45.7506V33.8535H46.1166H47.1536C47.3976 33.8535 47.5806 33.9145 47.7026 34.0975C47.8246 34.2805 47.8246 34.5855 47.8246 34.9515V35.9885Z" fill="#4B4B4B"/>
<path d="M76.9204 33.9131C76.9204 33.7301 76.8594 33.6081 76.7374 33.4251C76.6764 33.3031 76.4934 33.1811 76.3714 33.1811C76.1884 33.1201 76.0054 33.1201 75.7004 33.1201H74.6025H73.2605H72.8945V33.9131H73.2605V37.939H74.1755V36.353H75.6395C75.9444 36.353 76.1884 36.353 76.3714 36.292C76.5544 36.231 76.6764 36.17 76.7984 36.048C76.9204 35.926 76.9814 35.743 76.9814 35.621C76.9814 35.4381 77.0424 35.2551 77.0424 34.9501V34.7061C76.9814 34.2791 76.9814 34.0351 76.9204 33.9131ZM76.0664 34.9501C76.0664 35.1941 76.0054 35.3161 75.9444 35.4381C75.8834 35.56 75.7615 35.56 75.5175 35.56H74.1145V33.8521H75.5175C75.7005 33.8521 75.8834 33.9131 75.9444 34.0351C76.0054 34.1571 76.0054 34.3401 76.0054 34.5841V34.9501H76.0664Z" fill="#4B4B4B"/>
<path d="M86.311 37.0254V36.4764C86.311 36.1715 86.25 35.9275 86.128 35.8665C86.0061 35.7445 85.8231 35.6835 85.5791 35.6225C85.8231 35.5615 86.0671 35.5005 86.1891 35.3175C86.311 35.1345 86.372 34.8905 86.372 34.5245V34.4025C86.372 33.9145 86.25 33.5485 86.0061 33.3655C85.7621 33.1825 85.3961 33.0605 84.9081 33.0605H83.9931H82.5901H82.2852V33.8535H82.5901V37.8794H83.5051V35.9885H84.9081C85.1521 35.9885 85.2741 36.0495 85.3961 36.1105C85.4571 36.1715 85.5181 36.3545 85.5181 36.5374V37.0864C85.5181 37.4524 85.5181 37.6964 85.5791 37.8794H86.494C86.311 37.6354 86.311 37.3304 86.311 37.0254ZM85.3961 34.6465C85.3961 34.8905 85.3351 35.0125 85.2741 35.1345C85.2131 35.2565 85.0301 35.2565 84.7861 35.2565H83.3831V33.7925H83.8711H84.7251C84.9081 33.7925 85.0911 33.8535 85.1521 33.9145C85.2131 34.0365 85.2741 34.1585 85.2741 34.4025H85.3961V34.6465Z" fill="#4B4B4B"/>
</svg>
