<svg width="18" height="18" viewBox="0 0 18 18" fill="none" xmlns="http://www.w3.org/2000/svg">
<path d="M16.5938 0H1.40625C0.629297 0 0 0.629297 0 1.40625V16.5938C0 17.3707 0.629297 18 1.40625 18H16.5938C17.3707 18 18 17.3707 18 16.5938V1.40625C18 0.629297 17.3707 0 16.5938 0ZM16.9453 16.5938C16.9453 16.7871 16.7871 16.9453 16.5938 16.9453H1.40625C1.21289 16.9453 1.05469 16.7871 1.05469 16.5938V1.40625C1.05469 1.21289 1.21289 1.05469 1.40625 1.05469H16.5938C16.7871 1.05469 16.9453 1.21289 16.9453 1.40625V16.5938Z" fill="white"/>
<path d="M6.48086 7.15137H4.72656V12.7658H6.48086V7.15137Z" fill="white"/>
<path d="M11.2738 7.09863C10.2684 7.09863 9.63906 7.64707 9.52305 8.03379V7.15137H7.55078C7.57539 7.61895 7.55078 12.7658 7.55078 12.7658H9.52305V9.73184C9.52305 9.55957 9.51602 9.39082 9.56523 9.27129C9.69883 8.93379 9.99063 8.58223 10.5145 8.58223C11.2 8.58223 11.5094 9.10254 11.5094 9.86191V12.7658H13.4992V9.64395C13.4992 7.90723 12.5219 7.09863 11.2738 7.09863Z" fill="white"/>
<path d="M5.56836 4.5C4.92148 4.5 4.49609 4.91836 4.49609 5.47383C4.49609 6.01875 4.90742 6.44766 5.54375 6.44766H5.55781C6.21875 6.44766 6.63008 6.01523 6.62656 5.47383C6.6125 4.91836 6.21523 4.5 5.56836 4.5Z" fill="white"/>
</svg>
