<svg width="143" height="60" viewBox="0 0 143 60" fill="none" xmlns="http://www.w3.org/2000/svg">
<path d="M55.8024 0H3.73292C1.62717 0 0 1.7229 0 3.73293V55.8024C0 57.9082 1.72288 59.5353 3.73292 59.5353H55.8024C57.9082 59.5353 59.5353 57.8124 59.5353 55.8024V3.73293C59.5353 1.62718 57.9082 0 55.8024 0ZM18.7603 45.6565L24.8861 35.032L12.6345 13.7831H40.775L34.6492 24.4076L46.9008 45.6565H18.7603Z" fill="#00CC61"/>
<path d="M18.2841 17.1338L26.7071 31.6827L35.1301 17.1338H18.2841Z" fill="#00CC61"/>
<path d="M40.7745 13.8786H12.6341L24.8857 35.1275L18.7599 45.752H46.9004L34.6487 24.5031L40.7745 13.8786ZM18.2813 17.1329H35.1273L26.7043 31.7775L18.2813 17.1329Z" fill="white"/>
<path d="M69.5797 30.6282H77.7156C77.6199 31.4897 77.6199 32.2554 77.6199 32.9254C77.6199 34.8398 78.2899 36.2755 79.5342 37.1369C80.7785 37.9984 83.2671 38.3812 86.9043 38.3812C90.1587 38.3812 92.3601 37.9027 93.6044 36.9455C94.8487 35.9883 95.423 34.4569 95.423 32.4469C95.423 30.9154 95.1359 29.7668 94.6573 29.0011C94.1787 28.2353 93.2216 27.5653 91.8815 26.991C90.2544 26.4168 87.9572 25.8425 84.99 25.2682C82.8842 24.981 81.3528 24.6939 80.2042 24.5024C79.0556 24.311 77.7156 23.8324 76.1841 23.2581C74.6527 22.6838 73.4084 21.9181 72.6426 21.1524C71.8769 20.3866 71.2069 19.238 70.5369 17.7066C69.9626 16.2708 69.6754 14.548 69.6754 12.5379C69.6754 7.75213 71.0155 4.49779 73.5998 2.77491C76.2798 1.14773 80.7785 0.286285 87.2872 0.286285C93.0301 0.286285 97.1459 1.05202 99.4431 2.48776C101.74 3.9235 102.985 6.79498 102.985 11.1979C102.985 12.3465 102.889 13.2079 102.793 13.8779H94.9445C94.9445 13.4951 95.0402 12.9208 95.0402 12.0594C95.0402 10.3365 94.4659 9.09216 93.3173 8.32644C92.1687 7.56071 90.0629 7.17783 86.9043 7.17783C83.5543 7.17783 81.2571 7.5607 80.0128 8.42214C78.7684 9.28359 78.0984 10.6236 78.0984 12.6337C78.0984 14.3565 78.4813 15.6008 79.1513 16.4623C79.8213 17.3237 81.0656 17.898 82.7885 18.2809C83.3628 18.3766 85.5643 18.6637 89.4886 19.1423C93.413 19.6209 96.2845 20.1952 98.1031 20.9609C100.209 21.9181 101.645 23.2581 102.506 25.0767C103.367 26.8953 103.75 29.0968 103.75 31.8726C103.75 36.9455 102.506 40.487 100.017 42.4013C97.5288 44.3156 93.1258 45.2728 86.7129 45.2728C80.2999 45.2728 75.8013 44.4114 73.2169 42.7842C70.5369 41.157 69.2926 38.1898 69.2926 33.7869C69.484 32.734 69.484 31.6811 69.5797 30.6282Z" fill="#4B4B4B"/>
<path d="M111.214 0.860275H142.513V7.6561L120.02 37.4238H142.992V44.6025H109.874V37.4238L132.463 8.03897H111.214V0.860275Z" fill="#4B4B4B"/>
<path d="M79.732 56.0875H83.4649V54.9389H79.732V53.216H83.5606V51.876H78.2962V59.4376H83.5606V58.1933H79.732V56.0875Z" fill="#4B4B4B"/>
<path d="M88.4418 57.7147L86.5275 51.876H84.996L87.6761 59.4376H89.2075L91.9833 51.876H90.4519L88.4418 57.7147Z" fill="#4B4B4B"/>
<path d="M94.853 56.0875H98.5859V54.9389H94.853V53.216H98.6816V51.876H93.513V59.4376H98.7773V58.1933H94.853V56.0875Z" fill="#4B4B4B"/>
<path d="M102.033 51.876H100.502V59.4376H105.383V58.1933H102.033V51.876Z" fill="#4B4B4B"/>
<path d="M112.942 53.4083C112.846 53.1212 112.75 52.834 112.654 52.6426C112.559 52.4511 112.367 52.3554 112.08 52.164C111.793 52.0683 111.506 51.9726 111.219 51.8769C110.836 51.7811 110.453 51.7811 109.974 51.7811C109.496 51.7811 109.017 51.7811 108.73 51.8769C108.347 51.8769 108.06 51.9726 107.869 52.164C107.581 52.2597 107.39 52.4511 107.294 52.6426C107.199 52.834 107.007 53.0254 107.007 53.4083C106.911 53.6955 106.911 54.0783 106.816 54.3655C106.816 54.6526 106.816 55.1312 106.816 55.7055C106.816 56.2798 106.816 56.6626 106.816 57.0455C106.816 57.3327 106.911 57.7155 107.007 58.0027C107.103 58.2898 107.199 58.577 107.294 58.7684C107.39 58.9598 107.581 59.0556 107.869 59.247C108.156 59.3427 108.443 59.4384 108.73 59.5341C109.113 59.5341 109.496 59.6298 109.974 59.6298C110.357 59.6298 110.644 59.6298 110.931 59.6298C111.219 59.6298 111.506 59.5341 111.697 59.5341C111.889 59.4384 112.08 59.3427 112.271 59.247C112.463 59.1513 112.559 59.0555 112.654 58.8641C112.75 58.6727 112.846 58.577 112.942 58.3855C113.037 58.1941 113.037 58.0027 113.133 57.7155C113.133 57.4284 113.229 57.1412 113.229 56.8541C113.229 56.5669 113.229 56.2798 113.229 55.8012C113.229 55.2269 113.229 54.844 113.229 54.4612C113.037 53.9826 113.037 53.6955 112.942 53.4083ZM111.697 56.4881C111.697 56.7752 111.601 56.8541 111.601 57.0455C111.601 57.2369 111.506 57.4284 111.506 57.6198C111.506 57.8112 111.314 57.907 111.219 58.0027C111.123 58.0984 110.931 58.1941 110.74 58.1941C110.549 58.2898 110.261 58.2898 109.974 58.2898C109.591 58.2898 109.209 58.2898 109.017 58.1941C108.826 58.0984 108.634 58.0027 108.443 57.8112C108.347 57.6198 108.251 57.4284 108.251 57.2369C108.251 57.0455 108.156 56.6626 108.156 56.2798V54.9398C108.156 54.5569 108.156 54.2697 108.251 54.0783C108.251 53.8869 108.347 53.6955 108.443 53.504C108.539 53.3126 108.73 53.2169 109.017 53.1212C109.209 53.0254 109.591 53.0254 109.974 53.0254C110.357 53.0254 110.644 53.0254 110.931 53.1212C111.123 53.2169 111.314 53.3126 111.506 53.504C111.601 53.6955 111.697 53.8869 111.697 54.0783C111.697 54.2697 111.793 54.5569 111.793 54.9398V56.2798L111.697 56.4881Z" fill="#4B4B4B"/>
<path d="M123.854 56.0875H127.587V54.9389H123.854V53.216H127.683V51.876H122.419V59.4376H127.683V58.1933H123.854V56.0875Z" fill="#4B4B4B"/>
<path d="M142.808 56.0884C142.712 55.8012 142.425 55.5141 142.042 55.4183C141.755 55.3226 141.181 55.2269 140.511 55.1312C139.841 55.0355 139.458 55.0355 139.362 54.9398C139.075 54.844 138.884 54.7483 138.788 54.6526C138.692 54.4612 138.597 54.2698 138.597 53.9826C138.597 53.5997 138.692 53.4083 138.884 53.2169C139.075 53.1212 139.458 53.0254 140.032 53.0254C140.607 53.0254 140.894 53.1212 141.181 53.2169C141.372 53.3126 141.468 53.5997 141.468 53.8869C141.468 54.0783 141.468 54.174 141.468 54.174H142.808C142.808 54.0783 142.808 53.8869 142.808 53.6955C142.808 52.9297 142.617 52.4511 142.234 52.164C141.851 51.8768 141.085 51.7811 140.128 51.7811C138.979 51.7811 138.214 51.9726 137.735 52.2597C137.257 52.5469 137.065 53.1212 137.065 53.8869C137.065 54.2697 137.161 54.5569 137.257 54.7483C137.352 55.0355 137.448 55.2269 137.639 55.3226C137.735 55.4183 138.022 55.6098 138.214 55.7055C138.501 55.8012 138.692 55.8969 138.884 55.8969C139.075 55.8969 139.362 55.9926 139.745 55.9926C140.224 56.0883 140.607 56.1841 140.894 56.2798C141.085 56.3755 141.277 56.4712 141.372 56.6627C141.468 56.7584 141.468 56.9498 141.468 57.2369C141.468 57.6198 141.372 57.8112 141.181 58.0027C140.989 58.1941 140.607 58.2898 140.032 58.2898C139.362 58.2898 138.979 58.1941 138.788 58.0984C138.597 58.0027 138.501 57.7155 138.501 57.3327C138.501 57.2369 138.501 57.0455 138.501 56.9498H137.065C137.065 57.1412 137.065 57.3327 137.065 57.5241C137.065 58.2898 137.257 58.7684 137.735 59.0556C138.214 59.3427 138.979 59.4384 140.032 59.4384C141.085 59.4384 141.851 59.247 142.33 58.9598C142.712 58.6727 143 58.0027 143 57.1412C143 56.7584 142.904 56.3755 142.808 56.0884Z" fill="#4B4B4B"/>
<path d="M73.9884 51.876H72.2655H70.1598H69.5854V53.1203H70.2555V59.4376H74.0841C75.0413 59.4376 75.7113 59.1504 75.9984 58.6718C76.3813 58.1933 76.477 57.3318 76.477 56.0875V55.1303C76.477 53.886 76.2856 53.0246 75.9984 52.546C75.6156 52.1632 74.9455 51.876 73.9884 51.876ZM75.0413 56.4704C75.0413 57.1404 74.9455 57.619 74.8498 57.8104C74.6584 58.0975 74.3713 58.1933 73.9884 58.1933H71.7869V53.1203H72.3612H73.9884C74.3713 53.1203 74.6584 53.216 74.8498 53.5032C75.0413 53.7903 75.0413 54.2689 75.0413 54.8432V56.4704Z" fill="#4B4B4B"/>
<path d="M120.699 53.2168C120.699 52.9297 120.603 52.7383 120.411 52.4511C120.316 52.2597 120.029 52.0683 119.837 52.0683C119.55 51.9725 119.263 51.9725 118.784 51.9725H117.061H114.956H114.381V53.2168H114.956V59.5341H116.391V57.0455H118.689C119.167 57.0455 119.55 57.0455 119.837 56.9498C120.124 56.854 120.316 56.7583 120.507 56.5669C120.699 56.3755 120.794 56.0883 120.794 55.8969C120.794 55.6097 120.89 55.3226 120.89 54.844V54.4612C120.794 53.7911 120.794 53.4083 120.699 53.2168ZM119.359 54.844C119.359 55.2269 119.263 55.4183 119.167 55.6097C119.071 55.8012 118.88 55.8012 118.497 55.8012H116.296V53.1211H118.497C118.784 53.1211 119.071 53.2168 119.167 53.4083C119.263 53.5997 119.263 53.8869 119.263 54.2697V54.844H119.359Z" fill="#4B4B4B"/>
<path d="M135.436 58.0975V57.2361C135.436 56.7575 135.34 56.3746 135.148 56.2789C134.957 56.0875 134.67 55.9918 134.287 55.8961C134.67 55.8004 135.053 55.7046 135.244 55.4175C135.436 55.1303 135.531 54.7475 135.531 54.1732V53.9818C135.531 53.216 135.34 52.6417 134.957 52.3546C134.574 52.0674 134 51.876 133.234 51.876H131.798H129.597H129.118V53.1203H129.597V59.4376H131.033V56.4704H133.234C133.617 56.4704 133.808 56.5661 134 56.6618C134.096 56.7575 134.191 57.0447 134.191 57.3318V58.1933C134.191 58.7675 134.191 59.1504 134.287 59.4376H135.723C135.436 59.0547 135.436 58.5761 135.436 58.0975ZM134 54.3646C134 54.7475 133.904 54.9389 133.808 55.1303C133.713 55.3218 133.426 55.3218 133.043 55.3218H130.841V53.0246H131.607H132.947C133.234 53.0246 133.521 53.1203 133.617 53.216C133.713 53.4075 133.808 53.5989 133.808 53.9818H134V54.3646Z" fill="#4B4B4B"/>
</svg>
