<svg width="32" height="32" viewBox="0 0 32 32" fill="none" xmlns="http://www.w3.org/2000/svg">
<path d="M29.9936 0H2.00643C0.874595 0 0 0.92605 0 2.00644V29.9936C0 31.1254 0.926042 32 2.00643 32H29.9936C31.1254 32 32 31.074 32 29.9936V2.00644C32 0.874603 31.1254 0 29.9936 0ZM10.0836 24.5402L13.3762 18.8296L6.791 7.40837H21.9164L18.6238 13.119L25.209 24.5402H10.0836Z" fill="#00CC61"/>
<path d="M9.82812 9.20996L14.3555 17.0299L18.8828 9.20996H9.82812Z" fill="#00CC61"/>
<path d="M21.9184 7.45996H6.79297L13.3782 18.8812L10.0856 24.5918H25.211L18.6258 13.1706L21.9184 7.45996ZM9.82834 9.20916H18.883L14.3557 17.0805L9.82834 9.20916Z" fill="white"/>
</svg>
